<?xml version="1.0" standalone="no"?>
<!DOCTYPE svg PUBLIC "-//W3C//DTD SVG 20010904//EN"
 "http://www.w3.org/TR/2001/REC-SVG-20010904/DTD/svg10.dtd">
<svg version="1.0" xmlns="http://www.w3.org/2000/svg"
 width="143.000000pt" height="143.000000pt" viewBox="0 0 143.000000 143.000000"
 preserveAspectRatio="xMidYMid meet">
<metadata>
Created by potrace 1.14, written by Peter Selinger 2001-2017
</metadata>
<g transform="translate(0.000000,143.000000) scale(0.100000,-0.100000)"
fill="#000000" stroke="none">
<path d="M856 1343 c-34 -9 -94 -51 -119 -85 -31 -42 -47 -90 -47 -139 0 -24
-5 -39 -12 -39 -7 0 -79 -1 -160 -1 -93 0 -148 -4 -148 -10 0 -6 -4 -7 -10 -4
-15 9 -113 -41 -152 -78 -47 -44 -83 -103 -102 -167 -24 -79 -24 -549 -1 -608
31 -78 122 -130 203 -117 90 14 149 78 171 186 9 44 17 59 37 68 16 7 95 11
219 11 223 0 214 4 235 -98 7 -29 18 -59 26 -66 8 -8 14 -18 14 -23 1 -28 107
-72 162 -67 38 3 118 46 118 63 0 5 8 17 18 27 15 16 17 41 15 253 -2 337 -5
366 -37 430 -50 98 -155 175 -254 188 -26 4 -100 7 -164 7 -108 1 -118 3 -118
19 0 63 86 153 154 161 22 3 61 8 86 11 25 3 54 7 65 9 11 3 35 5 53 5 27 1
32 5 32 25 0 20 -6 25 -42 31 -54 9 -217 14 -242 8z"/>
</g>
</svg>
